<svg xmlns="http://www.w3.org/2000/svg" width="960" height="540" viewBox="0 0 960 540" role="img" aria-labelledby="title desc">
  <title id="title">Placeholder history</title>
  <desc id="desc">Ilustrasi placeholder tab History dengan summary card, daftar bill, dan insight Plus.</desc>
  <rect width="960" height="540" rx="28" fill="#f8fafc"/>
  <rect x="74" y="42" width="326" height="456" rx="30" fill="#ffffff" stroke="#cbd5e1" stroke-width="3"/>
  <text x="108" y="90" fill="#0f172a" font-family="Arial, sans-serif" font-size="26" font-weight="700">History</text>
  <rect x="108" y="120" width="116" height="86" rx="16" fill="#ccfbf1"/>
  <text x="126" y="154" fill="#134e4a" font-family="Arial, sans-serif" font-size="13">Total bills</text>
  <text x="126" y="186" fill="#0f172a" font-family="Arial, sans-serif" font-size="26" font-weight="700">12</text>
  <rect x="244" y="120" width="116" height="86" rx="16" fill="#fef3c7"/>
  <text x="262" y="154" fill="#92400e" font-family="Arial, sans-serif" font-size="13">Outstanding</text>
  <text x="262" y="186" fill="#0f172a" font-family="Arial, sans-serif" font-size="20" font-weight="700">Rp 80k</text>
  <rect x="108" y="226" width="252" height="70" rx="16" fill="#eef2ff" stroke="#c7d2fe"/>
  <text x="128" y="254" fill="#3730a3" font-family="Arial, sans-serif" font-size="15" font-weight="700">Insight bulanan Plus</text>
  <text x="128" y="278" fill="#475569" font-family="Arial, sans-serif" font-size="13">Tren dan merchant terbesar</text>
  <rect x="108" y="326" width="252" height="54" rx="14" fill="#ffffff" stroke="#cbd5e1"/>
  <text x="128" y="358" fill="#0f172a" font-family="Arial, sans-serif" font-size="15" font-weight="700">Kopi Senja</text>
  <text x="280" y="358" fill="#0f172a" font-family="Arial, sans-serif" font-size="14">Lunas</text>
  <rect x="108" y="392" width="252" height="54" rx="14" fill="#ffffff" stroke="#cbd5e1"/>
  <text x="128" y="424" fill="#0f172a" font-family="Arial, sans-serif" font-size="15" font-weight="700">Makan Siang</text>
  <text x="264" y="424" fill="#0f172a" font-family="Arial, sans-serif" font-size="14">Belum</text>
  <rect x="478" y="76" width="386" height="388" rx="24" fill="#ffffff" stroke="#cbd5e1" stroke-width="3"/>
  <text x="514" y="128" fill="#0f172a" font-family="Arial, sans-serif" font-size="28" font-weight="700">Batas History</text>
  <rect x="514" y="166" width="300" height="52" rx="14" fill="#f1f5f9"/>
  <text x="536" y="199" fill="#334155" font-family="Arial, sans-serif" font-size="18">Anonymous: terkunci</text>
  <rect x="514" y="236" width="300" height="52" rx="14" fill="#ecfeff"/>
  <text x="536" y="269" fill="#155e75" font-family="Arial, sans-serif" font-size="18">Free: 7 hari terakhir</text>
  <rect x="514" y="306" width="300" height="52" rx="14" fill="#dcfce7"/>
  <text x="536" y="339" fill="#166534" font-family="Arial, sans-serif" font-size="18">Plus: 90 hari + insight</text>
  <rect x="514" y="390" width="318" height="38" rx="10" fill="#fef3c7"/>
  <text x="534" y="415" fill="#92400e" font-family="Arial, sans-serif" font-size="15">Ganti dengan screenshot History asli</text>
</svg>
