<svg xmlns="http://www.w3.org/2000/svg" width="960" height="540" viewBox="0 0 960 540" role="img" aria-labelledby="title desc">
  <title id="title">Placeholder settlement</title>
  <desc id="desc">Ilustrasi placeholder layar Detail Tagihan untuk settlement pembayaran.</desc>
  <rect width="960" height="540" rx="28" fill="#f8fafc"/>
  <rect x="72" y="42" width="322" height="456" rx="30" fill="#ffffff" stroke="#cbd5e1" stroke-width="3"/>
  <rect x="104" y="82" width="258" height="122" rx="18" fill="#f1f5f9"/>
  <text x="126" y="122" fill="#0f172a" font-family="Arial, sans-serif" font-size="22" font-weight="700">Detail Tagihan</text>
  <text x="126" y="156" fill="#334155" font-family="Arial, sans-serif" font-size="15">Total tagihan</text>
  <text x="126" y="186" fill="#0f172a" font-family="Arial, sans-serif" font-size="26" font-weight="700">Rp 120.000</text>
  <rect x="256" y="96" width="84" height="30" rx="15" fill="#fef3c7"/>
  <text x="276" y="116" fill="#92400e" font-family="Arial, sans-serif" font-size="13" font-weight="700">Belum</text>
  <rect x="104" y="238" width="258" height="60" rx="16" fill="#ffffff" stroke="#cbd5e1"/>
  <circle cx="132" cy="268" r="18" fill="#0f766e"/>
  <text x="162" y="274" fill="#0f172a" font-family="Arial, sans-serif" font-size="16" font-weight="700">Andi</text>
  <text x="270" y="274" fill="#0f172a" font-family="Arial, sans-serif" font-size="15">Rp 60k</text>
  <rect x="318" y="254" width="30" height="18" rx="9" fill="#94a3b8"/>
  <rect x="104" y="314" width="258" height="60" rx="16" fill="#ecfdf5" stroke="#16a34a"/>
  <circle cx="132" cy="344" r="18" fill="#06b6d4"/>
  <text x="162" y="350" fill="#0f172a" font-family="Arial, sans-serif" font-size="16" font-weight="700">Bela</text>
  <text x="270" y="350" fill="#0f172a" font-family="Arial, sans-serif" font-size="15">Rp 60k</text>
  <rect x="318" y="330" width="30" height="18" rx="9" fill="#16a34a"/>
  <circle cx="334" cy="339" r="7" fill="#ffffff"/>
  <rect x="104" y="408" width="122" height="42" rx="12" fill="#0f766e"/>
  <text x="136" y="435" fill="#ffffff" font-family="Arial, sans-serif" font-size="15" font-weight="700">Share</text>
  <rect x="240" y="408" width="122" height="42" rx="12" fill="#e2e8f0"/>
  <text x="270" y="435" fill="#0f172a" font-family="Arial, sans-serif" font-size="15" font-weight="700">Export</text>
  <rect x="474" y="76" width="392" height="388" rx="24" fill="#ffffff" stroke="#cbd5e1" stroke-width="3"/>
  <text x="510" y="128" fill="#0f172a" font-family="Arial, sans-serif" font-size="28" font-weight="700">Settlement</text>
  <text x="510" y="186" fill="#334155" font-family="Arial, sans-serif" font-size="18">Share tagihan ke tiap partisipan.</text>
  <text x="510" y="232" fill="#334155" font-family="Arial, sans-serif" font-size="18">Aktifkan switch setelah dibayar.</text>
  <text x="510" y="278" fill="#334155" font-family="Arial, sans-serif" font-size="18">Semua paid = bill menjadi Lunas.</text>
  <text x="510" y="324" fill="#334155" font-family="Arial, sans-serif" font-size="18">Plus: info bank, PDF, CSV.</text>
  <rect x="510" y="388" width="334" height="38" rx="10" fill="#fef3c7"/>
  <text x="530" y="413" fill="#92400e" font-family="Arial, sans-serif" font-size="15">Ganti dengan screenshot Detail asli</text>
</svg>
