<svg xmlns="http://www.w3.org/2000/svg" width="390" height="844" viewBox="0 0 390 844" role="img" aria-labelledby="title desc">
  <title id="title">Review bill placeholder</title>
  <desc id="desc">Placeholder for the BagiStruk bill review screen.</desc>
  <rect width="390" height="844" rx="32" fill="#f8fafc"/>
  <rect x="24" y="40" width="342" height="764" rx="28" fill="#ffffff" stroke="#d1d5db"/>
  <text x="48" y="92" fill="#111827" font-family="Arial, sans-serif" font-size="24" font-weight="700">Review</text>
  <rect x="48" y="122" width="294" height="76" rx="14" fill="#fef3c7"/>
  <text x="68" y="152" fill="#92400e" font-family="Arial, sans-serif" font-size="15" font-weight="700">Merchant detected</text>
  <text x="68" y="178" fill="#78350f" font-family="Arial, sans-serif" font-size="20" font-weight="700">Warung Makan</text>
  <g font-family="Arial, sans-serif">
    <rect x="48" y="226" width="294" height="78" rx="14" fill="#ffffff" stroke="#cbd5e1"/>
    <text x="68" y="258" fill="#111827" font-size="17" font-weight="700">Nasi Goreng</text>
    <text x="68" y="284" fill="#64748b" font-size="14">Qty 2</text>
    <text x="244" y="272" fill="#111827" font-size="17" font-weight="700">50.000</text>
    <rect x="48" y="322" width="294" height="78" rx="14" fill="#ffffff" stroke="#cbd5e1"/>
    <text x="68" y="354" fill="#111827" font-size="17" font-weight="700">Es Teh</text>
    <text x="68" y="380" fill="#64748b" font-size="14">Qty 3</text>
    <text x="252" y="368" fill="#111827" font-size="17" font-weight="700">18.000</text>
    <rect x="48" y="418" width="294" height="78" rx="14" fill="#ffffff" stroke="#cbd5e1"/>
    <text x="68" y="450" fill="#111827" font-size="17" font-weight="700">Service</text>
    <text x="68" y="476" fill="#64748b" font-size="14">Editable</text>
    <text x="260" y="464" fill="#111827" font-size="17" font-weight="700">5.000</text>
  </g>
  <rect x="48" y="622" width="294" height="52" rx="12" fill="#0f766e"/>
  <text x="153" y="655" fill="#ffffff" font-family="Arial, sans-serif" font-size="17" font-weight="700">Continue</text>
  <text x="48" y="722" fill="#64748b" font-family="Arial, sans-serif" font-size="15">Replace with final app screenshot.</text>
</svg>
